<?xml version="1.0" encoding="UTF-8" standalone="no"?>
<!DOCTYPE svg PUBLIC "-//W3C//DTD SVG 1.1//EN"
 "http://www.w3.org/Graphics/SVG/1.1/DTD/svg11.dtd">
<!-- Generated by graphviz version 3.0.0 (20220226.1711)
 -->
<!-- Pages: 1 -->
<svg width="1738pt" height="332pt"
 viewBox="0.00 0.00 1738.00 332.00" xmlns="http://www.w3.org/2000/svg" xmlns:xlink="http://www.w3.org/1999/xlink">
<g id="graph0" class="graph" transform="scale(1 1) rotate(0) translate(4 328)">
<polygon fill="white" stroke="transparent" points="-4,4 -4,-328 1734,-328 1734,4 -4,4"/>
<!-- [root] aws_subnet.private_subnet_four (expand) -->
<g id="node1" class="node">
<title>[root] aws_subnet.private_subnet_four (expand)</title>
<polygon fill="none" stroke="black" points="1522.5,-180 1330.5,-180 1330.5,-144 1522.5,-144 1522.5,-180"/>
<text text-anchor="middle" x="1426.5" y="-158.3" font-family="Times,serif" font-size="14.00">aws_subnet.private_subnet_four</text>
</g>
<!-- [root] aws_vpc.study&#45;ss (expand) -->
<g id="node9" class="node">
<title>[root] aws_vpc.study&#45;ss (expand)</title>
<polygon fill="none" stroke="black" points="858.5,-108 746.5,-108 746.5,-72 858.5,-72 858.5,-108"/>
<text text-anchor="middle" x="802.5" y="-86.3" font-family="Times,serif" font-size="14.00">aws_vpc.study&#45;ss</text>
</g>
<!-- [root] aws_subnet.private_subnet_four (expand)&#45;&gt;[root] aws_vpc.study&#45;ss (expand) -->
<g id="edge1" class="edge">
<title>[root] aws_subnet.private_subnet_four (expand)&#45;&gt;[root] aws_vpc.study&#45;ss (expand)</title>
<path fill="none" stroke="black" d="M1330.4,-145.21C1327.4,-144.79 1324.43,-144.39 1321.5,-144 1159.32,-122.61 967.65,-105.02 868.83,-96.52"/>
<polygon fill="black" stroke="black" points="868.95,-93.01 858.69,-95.65 868.36,-99.99 868.95,-93.01"/>
</g>
<!-- [root] aws_subnet.private_subnet_one (expand) -->
<g id="node2" class="node">
<title>[root] aws_subnet.private_subnet_one (expand)</title>
<polygon fill="none" stroke="black" points="1730,-180 1541,-180 1541,-144 1730,-144 1730,-180"/>
<text text-anchor="middle" x="1635.5" y="-158.3" font-family="Times,serif" font-size="14.00">aws_subnet.private_subnet_one</text>
</g>
<!-- [root] aws_subnet.private_subnet_one (expand)&#45;&gt;[root] aws_vpc.study&#45;ss (expand) -->
<g id="edge2" class="edge">
<title>[root] aws_subnet.private_subnet_one (expand)&#45;&gt;[root] aws_vpc.study&#45;ss (expand)</title>
<path fill="none" stroke="black" d="M1540.89,-145.17C1537.73,-144.75 1534.59,-144.36 1531.5,-144 1288.24,-115.33 997.37,-99.77 868.98,-93.84"/>
<polygon fill="black" stroke="black" points="869.06,-90.34 858.91,-93.38 868.74,-97.33 869.06,-90.34"/>
</g>
<!-- [root] aws_subnet.private_subnet_three (expand) -->
<g id="node3" class="node">
<title>[root] aws_subnet.private_subnet_three (expand)</title>
<polygon fill="none" stroke="black" points="482,-180 285,-180 285,-144 482,-144 482,-180"/>
<text text-anchor="middle" x="383.5" y="-158.3" font-family="Times,serif" font-size="14.00">aws_subnet.private_subnet_three</text>
</g>
<!-- [root] aws_subnet.private_subnet_three (expand)&#45;&gt;[root] aws_vpc.study&#45;ss (expand) -->
<g id="edge3" class="edge">
<title>[root] aws_subnet.private_subnet_three (expand)&#45;&gt;[root] aws_vpc.study&#45;ss (expand)</title>
<path fill="none" stroke="black" d="M482,-144.54C560.35,-131.45 667.82,-113.5 736.22,-102.07"/>
<polygon fill="black" stroke="black" points="737.15,-105.47 746.44,-100.37 736,-98.56 737.15,-105.47"/>
</g>
<!-- [root] aws_subnet.private_subnet_two (expand) -->
<g id="node4" class="node">
<title>[root] aws_subnet.private_subnet_two (expand)</title>
<polygon fill="none" stroke="black" points="690.5,-180 500.5,-180 500.5,-144 690.5,-144 690.5,-180"/>
<text text-anchor="middle" x="595.5" y="-158.3" font-family="Times,serif" font-size="14.00">aws_subnet.private_subnet_two</text>
</g>
<!-- [root] aws_subnet.private_subnet_two (expand)&#45;&gt;[root] aws_vpc.study&#45;ss (expand) -->
<g id="edge4" class="edge">
<title>[root] aws_subnet.private_subnet_two (expand)&#45;&gt;[root] aws_vpc.study&#45;ss (expand)</title>
<path fill="none" stroke="black" d="M645.87,-143.97C674.92,-134.14 711.63,-121.73 742.21,-111.39"/>
<polygon fill="black" stroke="black" points="743.55,-114.63 751.9,-108.11 741.31,-108 743.55,-114.63"/>
</g>
<!-- [root] aws_subnet.public_subnet_four (expand) -->
<g id="node5" class="node">
<title>[root] aws_subnet.public_subnet_four (expand)</title>
<polygon fill="none" stroke="black" points="896.5,-180 708.5,-180 708.5,-144 896.5,-144 896.5,-180"/>
<text text-anchor="middle" x="802.5" y="-158.3" font-family="Times,serif" font-size="14.00">aws_subnet.public_subnet_four</text>
</g>
<!-- [root] aws_subnet.public_subnet_four (expand)&#45;&gt;[root] aws_vpc.study&#45;ss (expand) -->
<g id="edge5" class="edge">
<title>[root] aws_subnet.public_subnet_four (expand)&#45;&gt;[root] aws_vpc.study&#45;ss (expand)</title>
<path fill="none" stroke="black" d="M802.5,-143.7C802.5,-135.98 802.5,-126.71 802.5,-118.11"/>
<polygon fill="black" stroke="black" points="806,-118.1 802.5,-108.1 799,-118.1 806,-118.1"/>
</g>
<!-- [root] aws_subnet.public_subnet_one (expand) -->
<g id="node6" class="node">
<title>[root] aws_subnet.public_subnet_one (expand)</title>
<polygon fill="none" stroke="black" points="267,-180 82,-180 82,-144 267,-144 267,-180"/>
<text text-anchor="middle" x="174.5" y="-158.3" font-family="Times,serif" font-size="14.00">aws_subnet.public_subnet_one</text>
</g>
<!-- [root] aws_subnet.public_subnet_one (expand)&#45;&gt;[root] aws_vpc.study&#45;ss (expand) -->
<g id="edge6" class="edge">
<title>[root] aws_subnet.public_subnet_one (expand)&#45;&gt;[root] aws_vpc.study&#45;ss (expand)</title>
<path fill="none" stroke="black" d="M267.2,-145.15C270,-144.75 272.77,-144.37 275.5,-144 440.54,-121.84 635.8,-104.51 735.93,-96.27"/>
<polygon fill="black" stroke="black" points="736.52,-99.73 746.2,-95.42 735.95,-92.75 736.52,-99.73"/>
</g>
<!-- [root] aws_subnet.public_subnet_three (expand) -->
<g id="node7" class="node">
<title>[root] aws_subnet.public_subnet_three (expand)</title>
<polygon fill="none" stroke="black" points="1108,-180 915,-180 915,-144 1108,-144 1108,-180"/>
<text text-anchor="middle" x="1011.5" y="-158.3" font-family="Times,serif" font-size="14.00">aws_subnet.public_subnet_three</text>
</g>
<!-- [root] aws_subnet.public_subnet_three (expand)&#45;&gt;[root] aws_vpc.study&#45;ss (expand) -->
<g id="edge7" class="edge">
<title>[root] aws_subnet.public_subnet_three (expand)&#45;&gt;[root] aws_vpc.study&#45;ss (expand)</title>
<path fill="none" stroke="black" d="M960.64,-143.97C931.31,-134.14 894.25,-121.73 863.38,-111.39"/>
<polygon fill="black" stroke="black" points="864.18,-107.97 853.59,-108.11 861.96,-114.61 864.18,-107.97"/>
</g>
<!-- [root] aws_subnet.public_subnet_two (expand) -->
<g id="node8" class="node">
<title>[root] aws_subnet.public_subnet_two (expand)</title>
<polygon fill="none" stroke="black" points="1312.5,-180 1126.5,-180 1126.5,-144 1312.5,-144 1312.5,-180"/>
<text text-anchor="middle" x="1219.5" y="-158.3" font-family="Times,serif" font-size="14.00">aws_subnet.public_subnet_two</text>
</g>
<!-- [root] aws_subnet.public_subnet_two (expand)&#45;&gt;[root] aws_vpc.study&#45;ss (expand) -->
<g id="edge8" class="edge">
<title>[root] aws_subnet.public_subnet_two (expand)&#45;&gt;[root] aws_vpc.study&#45;ss (expand)</title>
<path fill="none" stroke="black" d="M1126.44,-145.38C1048.19,-132.24 938.27,-113.79 868.73,-102.12"/>
<polygon fill="black" stroke="black" points="869.21,-98.65 858.77,-100.45 868.05,-105.55 869.21,-98.65"/>
</g>
<!-- [root] provider[&quot;registry.terraform.io/hashicorp/aws&quot;] -->
<g id="node12" class="node">
<title>[root] provider[&quot;registry.terraform.io/hashicorp/aws&quot;]</title>
<polygon fill="none" stroke="black" points="497.5,-36 244.96,-18 497.5,0 750.04,-18 497.5,-36"/>
<text text-anchor="middle" x="497.5" y="-14.3" font-family="Times,serif" font-size="14.00">provider[&quot;registry.terraform.io/hashicorp/aws&quot;]</text>
</g>
<!-- [root] aws_vpc.study&#45;ss (expand)&#45;&gt;[root] provider[&quot;registry.terraform.io/hashicorp/aws&quot;] -->
<g id="edge9" class="edge">
<title>[root] aws_vpc.study&#45;ss (expand)&#45;&gt;[root] provider[&quot;registry.terraform.io/hashicorp/aws&quot;]</title>
<path fill="none" stroke="black" d="M746.2,-76.08C694.76,-64.27 618.62,-46.8 564.15,-34.3"/>
<polygon fill="black" stroke="black" points="564.77,-30.85 554.24,-32.02 563.21,-37.67 564.77,-30.85"/>
</g>
<!-- [root] var.CIDR -->
<g id="node13" class="node">
<title>[root] var.CIDR</title>
<polygon fill="none" stroke="black" points="831,-36 768,-36 768,0 837,0 837,-30 831,-36"/>
<polyline fill="none" stroke="black" points="831,-36 831,-30 "/>
<polyline fill="none" stroke="black" points="837,-30 831,-30 "/>
<text text-anchor="middle" x="802.5" y="-14.3" font-family="Times,serif" font-size="14.00">var.CIDR</text>
</g>
<!-- [root] aws_vpc.study&#45;ss (expand)&#45;&gt;[root] var.CIDR -->
<g id="edge10" class="edge">
<title>[root] aws_vpc.study&#45;ss (expand)&#45;&gt;[root] var.CIDR</title>
<path fill="none" stroke="black" d="M802.5,-71.7C802.5,-63.98 802.5,-54.71 802.5,-46.11"/>
<polygon fill="black" stroke="black" points="806,-46.1 802.5,-36.1 799,-46.1 806,-46.1"/>
</g>
<!-- [root] var.Tag -->
<g id="node14" class="node">
<title>[root] var.Tag</title>
<polygon fill="none" stroke="black" points="907.5,-36 855.5,-36 855.5,0 913.5,0 913.5,-30 907.5,-36"/>
<polyline fill="none" stroke="black" points="907.5,-36 907.5,-30 "/>
<polyline fill="none" stroke="black" points="913.5,-30 907.5,-30 "/>
<text text-anchor="middle" x="884.5" y="-14.3" font-family="Times,serif" font-size="14.00">var.Tag</text>
</g>
<!-- [root] aws_vpc.study&#45;ss (expand)&#45;&gt;[root] var.Tag -->
<g id="edge11" class="edge">
<title>[root] aws_vpc.study&#45;ss (expand)&#45;&gt;[root] var.Tag</title>
<path fill="none" stroke="black" d="M822.77,-71.7C833,-62.97 845.56,-52.24 856.68,-42.75"/>
<polygon fill="black" stroke="black" points="859.13,-45.26 864.46,-36.1 854.59,-39.94 859.13,-45.26"/>
</g>
<!-- [root] output.public_subnet_info -->
<g id="node10" class="node">
<title>[root] output.public_subnet_info</title>
<polygon fill="none" stroke="black" points="278,-252 125,-252 125,-216 284,-216 284,-246 278,-252"/>
<polyline fill="none" stroke="black" points="278,-252 278,-246 "/>
<polyline fill="none" stroke="black" points="284,-246 278,-246 "/>
<text text-anchor="middle" x="204.5" y="-230.3" font-family="Times,serif" font-size="14.00">output.public_subnet_info</text>
</g>
<!-- [root] output.public_subnet_info&#45;&gt;[root] aws_subnet.public_subnet_one (expand) -->
<g id="edge12" class="edge">
<title>[root] output.public_subnet_info&#45;&gt;[root] aws_subnet.public_subnet_one (expand)</title>
<path fill="none" stroke="black" d="M197.08,-215.7C193.71,-207.81 189.63,-198.3 185.88,-189.55"/>
<polygon fill="black" stroke="black" points="188.99,-187.92 181.83,-180.1 182.55,-190.67 188.99,-187.92"/>
</g>
<!-- [root] output.vpc_infor -->
<g id="node11" class="node">
<title>[root] output.vpc_infor</title>
<polygon fill="none" stroke="black" points="101,-252 0,-252 0,-216 107,-216 107,-246 101,-252"/>
<polyline fill="none" stroke="black" points="101,-252 101,-246 "/>
<polyline fill="none" stroke="black" points="107,-246 101,-246 "/>
<text text-anchor="middle" x="53.5" y="-230.3" font-family="Times,serif" font-size="14.00">output.vpc_infor</text>
</g>
<!-- [root] output.vpc_infor&#45;&gt;[root] aws_vpc.study&#45;ss (expand) -->
<g id="edge13" class="edge">
<title>[root] output.vpc_infor&#45;&gt;[root] aws_vpc.study&#45;ss (expand)</title>
<path fill="none" stroke="black" d="M51.65,-215.95C50.49,-195.49 52.13,-161.74 72.5,-144 121.92,-100.96 565.7,-92.87 736.19,-91.35"/>
<polygon fill="black" stroke="black" points="736.33,-94.85 746.3,-91.27 736.27,-87.85 736.33,-94.85"/>
</g>
<!-- [root] provider[&quot;registry.terraform.io/hashicorp/aws&quot;] (close) -->
<g id="node15" class="node">
<title>[root] provider[&quot;registry.terraform.io/hashicorp/aws&quot;] (close)</title>
<ellipse fill="none" stroke="black" cx="802.5" cy="-234" rx="227.46" ry="18"/>
<text text-anchor="middle" x="802.5" y="-230.3" font-family="Times,serif" font-size="14.00">[root] provider[&quot;registry.terraform.io/hashicorp/aws&quot;] (close)</text>
</g>
<!-- [root] provider[&quot;registry.terraform.io/hashicorp/aws&quot;] (close)&#45;&gt;[root] aws_subnet.private_subnet_four (expand) -->
<g id="edge14" class="edge">
<title>[root] provider[&quot;registry.terraform.io/hashicorp/aws&quot;] (close)&#45;&gt;[root] aws_subnet.private_subnet_four (expand)</title>
<path fill="none" stroke="black" d="M949.86,-220.28C1051.25,-210.97 1189.25,-197.21 1320.18,-180.13"/>
<polygon fill="black" stroke="black" points="1320.94,-183.56 1330.4,-178.79 1320.03,-176.62 1320.94,-183.56"/>
</g>
<!-- [root] provider[&quot;registry.terraform.io/hashicorp/aws&quot;] (close)&#45;&gt;[root] aws_subnet.private_subnet_one (expand) -->
<g id="edge15" class="edge">
<title>[root] provider[&quot;registry.terraform.io/hashicorp/aws&quot;] (close)&#45;&gt;[root] aws_subnet.private_subnet_one (expand)</title>
<path fill="none" stroke="black" d="M991.37,-223.91C1136.21,-215.85 1341.25,-202.05 1530.74,-180.02"/>
<polygon fill="black" stroke="black" points="1531.37,-183.47 1540.89,-178.83 1530.55,-176.52 1531.37,-183.47"/>
</g>
<!-- [root] provider[&quot;registry.terraform.io/hashicorp/aws&quot;] (close)&#45;&gt;[root] aws_subnet.private_subnet_three (expand) -->
<g id="edge16" class="edge">
<title>[root] provider[&quot;registry.terraform.io/hashicorp/aws&quot;] (close)&#45;&gt;[root] aws_subnet.private_subnet_three (expand)</title>
<path fill="none" stroke="black" d="M710.03,-217.55C645.85,-206.83 560.08,-192.5 492.56,-181.22"/>
<polygon fill="black" stroke="black" points="492.75,-177.7 482.31,-179.51 491.59,-184.61 492.75,-177.7"/>
</g>
<!-- [root] provider[&quot;registry.terraform.io/hashicorp/aws&quot;] (close)&#45;&gt;[root] aws_subnet.private_subnet_two (expand) -->
<g id="edge17" class="edge">
<title>[root] provider[&quot;registry.terraform.io/hashicorp/aws&quot;] (close)&#45;&gt;[root] aws_subnet.private_subnet_two (expand)</title>
<path fill="none" stroke="black" d="M753.44,-216.41C724.21,-206.52 686.87,-193.9 655.84,-183.4"/>
<polygon fill="black" stroke="black" points="656.6,-179.97 646,-180.08 654.36,-186.6 656.6,-179.97"/>
</g>
<!-- [root] provider[&quot;registry.terraform.io/hashicorp/aws&quot;] (close)&#45;&gt;[root] aws_subnet.public_subnet_four (expand) -->
<g id="edge18" class="edge">
<title>[root] provider[&quot;registry.terraform.io/hashicorp/aws&quot;] (close)&#45;&gt;[root] aws_subnet.public_subnet_four (expand)</title>
<path fill="none" stroke="black" d="M802.5,-215.7C802.5,-207.98 802.5,-198.71 802.5,-190.11"/>
<polygon fill="black" stroke="black" points="806,-190.1 802.5,-180.1 799,-190.1 806,-190.1"/>
</g>
<!-- [root] provider[&quot;registry.terraform.io/hashicorp/aws&quot;] (close)&#45;&gt;[root] aws_subnet.public_subnet_one (expand) -->
<g id="edge19" class="edge">
<title>[root] provider[&quot;registry.terraform.io/hashicorp/aws&quot;] (close)&#45;&gt;[root] aws_subnet.public_subnet_one (expand)</title>
<path fill="none" stroke="black" d="M651.69,-220.52C548.82,-211.36 409.25,-197.7 277.48,-180.22"/>
<polygon fill="black" stroke="black" points="277.58,-176.7 267.2,-178.85 276.65,-183.64 277.58,-176.7"/>
</g>
<!-- [root] provider[&quot;registry.terraform.io/hashicorp/aws&quot;] (close)&#45;&gt;[root] aws_subnet.public_subnet_three (expand) -->
<g id="edge20" class="edge">
<title>[root] provider[&quot;registry.terraform.io/hashicorp/aws&quot;] (close)&#45;&gt;[root] aws_subnet.public_subnet_three (expand)</title>
<path fill="none" stroke="black" d="M852.03,-216.41C881.68,-206.48 919.57,-193.79 950.98,-183.27"/>
<polygon fill="black" stroke="black" points="952.14,-186.57 960.51,-180.08 949.91,-179.94 952.14,-186.57"/>
</g>
<!-- [root] provider[&quot;registry.terraform.io/hashicorp/aws&quot;] (close)&#45;&gt;[root] aws_subnet.public_subnet_two (expand) -->
<g id="edge21" class="edge">
<title>[root] provider[&quot;registry.terraform.io/hashicorp/aws&quot;] (close)&#45;&gt;[root] aws_subnet.public_subnet_two (expand)</title>
<path fill="none" stroke="black" d="M894.79,-217.51C960.41,-206.49 1048.6,-191.69 1116.51,-180.29"/>
<polygon fill="black" stroke="black" points="1117.1,-183.74 1126.38,-178.63 1115.94,-176.84 1117.1,-183.74"/>
</g>
<!-- [root] root -->
<g id="node16" class="node">
<title>[root] root</title>
<ellipse fill="none" stroke="black" cx="204.5" cy="-306" rx="47.39" ry="18"/>
<text text-anchor="middle" x="204.5" y="-302.3" font-family="Times,serif" font-size="14.00">[root] root</text>
</g>
<!-- [root] root&#45;&gt;[root] output.public_subnet_info -->
<g id="edge22" class="edge">
<title>[root] root&#45;&gt;[root] output.public_subnet_info</title>
<path fill="none" stroke="black" d="M204.5,-287.7C204.5,-279.98 204.5,-270.71 204.5,-262.11"/>
<polygon fill="black" stroke="black" points="208,-262.1 204.5,-252.1 201,-262.1 208,-262.1"/>
</g>
<!-- [root] root&#45;&gt;[root] output.vpc_infor -->
<g id="edge23" class="edge">
<title>[root] root&#45;&gt;[root] output.vpc_infor</title>
<path fill="none" stroke="black" d="M175.74,-291.67C154.19,-281.68 124.27,-267.81 99.42,-256.29"/>
<polygon fill="black" stroke="black" points="100.72,-253.03 90.18,-252 97.78,-259.38 100.72,-253.03"/>
</g>
<!-- [root] root&#45;&gt;[root] provider[&quot;registry.terraform.io/hashicorp/aws&quot;] (close) -->
<g id="edge24" class="edge">
<title>[root] root&#45;&gt;[root] provider[&quot;registry.terraform.io/hashicorp/aws&quot;] (close)</title>
<path fill="none" stroke="black" d="M249.45,-299.74C337.73,-289.4 536.81,-266.1 670.43,-250.46"/>
<polygon fill="black" stroke="black" points="671.21,-253.89 680.74,-249.25 670.4,-246.94 671.21,-253.89"/>
</g>
</g>
</svg>
